<svg width="25" height="25" viewBox="0 0 25 25" fill="none" xmlns="http://www.w3.org/2000/svg">
<path d="M12.4822 7.6535C9.64451 7.6535 7.35561 9.94291 7.35561 12.7812C7.35561 15.6196 9.64451 17.909 12.4822 17.909C15.3199 17.909 17.6088 15.6196 17.6088 12.7812C17.6088 9.94291 15.3199 7.6535 12.4822 7.6535ZM12.4822 16.115C10.6484 16.115 9.14925 14.6199 9.14925 12.7812C9.14925 10.9426 10.644 9.44755 12.4822 9.44755C14.3205 9.44755 15.8152 10.9426 15.8152 12.7812C15.8152 14.6199 14.316 16.115 12.4822 16.115ZM19.0143 7.44375C19.0143 8.10871 18.4789 8.63978 17.8185 8.63978C17.1537 8.63978 16.6228 8.10424 16.6228 7.44375C16.6228 6.78326 17.1582 6.24772 17.8185 6.24772C18.4789 6.24772 19.0143 6.78326 19.0143 7.44375ZM22.4097 8.65763C22.3339 7.05549 21.968 5.63632 20.7945 4.46707C19.6255 3.29782 18.2067 2.93187 16.6049 2.85154C14.954 2.75782 10.0059 2.75782 8.35505 2.85154C6.75773 2.92741 5.33888 3.29336 4.16542 4.46261C2.99197 5.63186 2.63057 7.05103 2.55025 8.65317C2.45656 10.3044 2.45656 15.2536 2.55025 16.9049C2.6261 18.507 2.99197 19.9262 4.16542 21.0954C5.33888 22.2647 6.75327 22.6306 8.35505 22.711C10.0059 22.8047 14.954 22.8047 16.6049 22.711C18.2067 22.6351 19.6255 22.2691 20.7945 21.0954C21.9635 19.9262 22.3294 18.507 22.4097 16.9049C22.5034 15.2536 22.5034 10.3089 22.4097 8.65763ZM20.277 18.6766C19.9289 19.5513 19.2552 20.2252 18.3762 20.5777C17.06 21.0999 13.9368 20.9794 12.4822 20.9794C11.0277 20.9794 7.89995 21.0954 6.58818 20.5777C5.71367 20.2296 5.03994 19.5558 4.68745 18.6766C4.16542 17.3601 4.28589 14.2361 4.28589 12.7812C4.28589 11.3264 4.16989 8.19796 4.68745 6.8859C5.03547 6.0112 5.70921 5.33731 6.58818 4.98475C7.90441 4.46261 11.0277 4.5831 12.4822 4.5831C13.9368 4.5831 17.0645 4.46707 18.3762 4.98475C19.2508 5.33285 19.9245 6.00673 20.277 6.8859C20.799 8.20243 20.6785 11.3264 20.6785 12.7812C20.6785 14.2361 20.799 17.3645 20.277 18.6766Z" fill="#062047"/>
</svg>
