<svg width="48" height="48" viewBox="0 0 48 48" fill="none" xmlns="http://www.w3.org/2000/svg">
<path d="M43 8H5.66667C4.95942 8 4.28115 8.28095 3.78105 8.78105C3.28095 9.28115 3 9.95942 3 10.6667V37.3333C3 38.0406 3.28095 38.7189 3.78105 39.219C4.28115 39.719 4.95942 40 5.66667 40H43C43.7072 40 44.3855 39.719 44.8856 39.219C45.3857 38.7189 45.6667 38.0406 45.6667 37.3333V10.6667C45.6667 9.95942 45.3857 9.28115 44.8856 8.78105C44.3855 8.28095 43.7072 8 43 8ZM40.9467 37.3333H7.88L17.2133 27.68L15.2933 25.8267L5.66667 35.7867V12.6933L22.24 29.1867C22.7396 29.6833 23.4155 29.9621 24.12 29.9621C24.8245 29.9621 25.5004 29.6833 26 29.1867L43 12.28V35.6133L33.1867 25.8L31.3067 27.68L40.9467 37.3333ZM7.41333 10.6667H40.84L24.12 27.2933L7.41333 10.6667Z" fill="black"/>
</svg>
