<svg width="80" height="21" viewBox="0 0 80 21" fill="none" xmlns="http://www.w3.org/2000/svg">
<path d="M0.847 5.168H4.246C5.08933 5.168 5.74567 5.37333 6.215 5.784C6.68433 6.18733 6.919 6.741 6.919 7.445C6.919 8.149 6.68067 8.70633 6.204 9.117C5.73467 9.52767 5.082 9.733 4.246 9.733H2.266V13H0.847V5.168ZM4.081 8.633C4.57233 8.633 4.94267 8.534 5.192 8.336C5.44867 8.13067 5.577 7.83733 5.577 7.456C5.577 7.06733 5.45233 6.774 5.203 6.576C4.95367 6.37067 4.57967 6.268 4.081 6.268H2.266V8.633H4.081ZM9.27317 5.168H10.6922V11.834H14.3552V13H9.27317V5.168ZM19.4402 13.099C18.3622 13.099 17.5445 12.824 16.9872 12.274C16.4372 11.7167 16.1622 10.9027 16.1622 9.832V5.168H17.5592V9.909C17.5592 10.5837 17.7168 11.097 18.0322 11.449C18.3475 11.7937 18.8168 11.966 19.4402 11.966C20.0488 11.966 20.5108 11.79 20.8262 11.438C21.1488 11.086 21.3102 10.5763 21.3102 9.909V5.168H22.7072V9.832C22.7072 10.8953 22.4285 11.7057 21.8712 12.263C21.3138 12.8203 20.5035 13.099 19.4402 13.099ZM28.0998 13.099C27.4984 13.099 26.9338 13.0183 26.4058 12.857C25.8851 12.6957 25.4414 12.4647 25.0748 12.164L25.5588 11.13C25.9401 11.416 26.3361 11.6287 26.7468 11.768C27.1648 11.9 27.6194 11.966 28.1108 11.966C28.6534 11.966 29.0714 11.8707 29.3648 11.68C29.6654 11.4893 29.8158 11.2217 29.8158 10.877C29.8158 10.5837 29.6764 10.36 29.3978 10.206C29.1264 10.0447 28.6754 9.89433 28.0448 9.755C27.0621 9.54233 26.3471 9.26733 25.8998 8.93C25.4524 8.59267 25.2288 8.10133 25.2288 7.456C25.2288 6.994 25.3534 6.58333 25.6028 6.224C25.8521 5.86467 26.2041 5.58233 26.6588 5.377C27.1208 5.17167 27.6524 5.069 28.2538 5.069C28.8038 5.069 29.3244 5.15333 29.8158 5.322C30.3144 5.48333 30.7214 5.71067 31.0368 6.004L30.5638 7.038C29.8671 6.48067 29.0971 6.202 28.2538 6.202C27.7478 6.202 27.3481 6.30833 27.0548 6.521C26.7614 6.72633 26.6148 7.00867 26.6148 7.368C26.6148 7.676 26.7431 7.91067 26.9998 8.072C27.2638 8.23333 27.7111 8.38367 28.3418 8.523C28.9944 8.677 29.5261 8.84567 29.9368 9.029C30.3474 9.205 30.6628 9.436 30.8828 9.722C31.1028 10.0007 31.2128 10.3527 31.2128 10.778C31.2128 11.2473 31.0881 11.658 30.8388 12.01C30.5894 12.3547 30.2301 12.6223 29.7608 12.813C29.2914 13.0037 28.7378 13.099 28.0998 13.099ZM37.7464 5.168H40.6284C41.9117 5.168 42.9054 5.509 43.6094 6.191C44.3207 6.873 44.6764 7.83367 44.6764 9.073C44.6764 10.3197 44.3207 11.2877 43.6094 11.977C42.9054 12.659 41.9117 13 40.6284 13H37.7464V5.168ZM40.5404 11.845C42.3444 11.845 43.2464 10.921 43.2464 9.073C43.2464 7.23967 42.3444 6.323 40.5404 6.323H39.1654V11.845H40.5404ZM48.4911 5.168V6.18C48.4911 6.56867 48.4251 6.92067 48.2931 7.236C48.1611 7.544 47.9374 7.85567 47.6221 8.171L47.0611 7.731C47.3911 7.379 47.5891 7.038 47.6551 6.708H46.9511V5.168H48.4911ZM51.0538 5.168H52.4728V13H51.0538V5.168ZM61.8691 5.168V13H60.8131L56.5891 7.511V13H55.2691V5.168H56.3251L60.5381 10.646V5.168H61.8691ZM64.6728 5.168H69.7878V6.301H66.0808V8.446H69.5678V9.59H66.0808V13H64.6728V5.168ZM75.4363 13.099C74.6809 13.099 74.0209 12.9377 73.4563 12.615C72.8989 12.285 72.4663 11.8193 72.1583 11.218C71.8576 10.6093 71.7073 9.89433 71.7073 9.073C71.7073 8.259 71.8576 7.55133 72.1583 6.95C72.4589 6.34133 72.8879 5.87567 73.4453 5.553C74.0099 5.23033 74.6736 5.069 75.4363 5.069C76.1989 5.069 76.8589 5.23033 77.4163 5.553C77.9809 5.87567 78.4099 6.34133 78.7033 6.95C79.0039 7.55133 79.1543 8.259 79.1543 9.073C79.1543 9.89433 79.0039 10.6093 78.7033 11.218C78.4026 11.8193 77.9736 12.285 77.4163 12.615C76.8589 12.9377 76.1989 13.099 75.4363 13.099ZM75.4363 11.966C76.1623 11.966 76.7269 11.7167 77.1303 11.218C77.5336 10.7193 77.7353 10.0043 77.7353 9.073C77.7353 8.149 77.5336 7.44133 77.1303 6.95C76.7269 6.45133 76.1623 6.202 75.4363 6.202C74.7103 6.202 74.1456 6.44767 73.7423 6.939C73.3389 7.43033 73.1373 8.14167 73.1373 9.073C73.1373 10.0043 73.3389 10.7193 73.7423 11.218C74.1456 11.7167 74.7103 11.966 75.4363 11.966Z" fill="#1C1514"/>
<line x1="4.28585e-08" y1="20.5" x2="79" y2="20.5" stroke="#1C1514"/>
</svg>
