<svg width="83" height="52" viewBox="0 0 83 52" fill="none" xmlns="http://www.w3.org/2000/svg">
<path d="M0.858 13V5.245H4.301C5.15167 5.245 5.80067 5.45033 6.248 5.861C6.69533 6.27167 6.919 6.83633 6.919 7.555C6.919 8.26633 6.69533 8.831 6.248 9.249C5.80067 9.667 5.15167 9.876 4.301 9.876H2.277V13H0.858ZM2.277 8.754H4.136C4.60533 8.754 4.95733 8.65133 5.192 8.446C5.42667 8.23333 5.544 7.93633 5.544 7.555C5.544 7.17367 5.42667 6.88033 5.192 6.675C4.95733 6.46233 4.60533 6.356 4.136 6.356H2.277V8.754ZM9.28417 13V5.245H10.7032V11.801H14.3552V13H9.28417ZM19.4619 13.11C18.3546 13.11 17.5296 12.835 16.9869 12.285C16.4516 11.7277 16.1839 10.9063 16.1839 9.821V5.245H17.6029V9.81C17.6029 10.4993 17.7496 11.02 18.0429 11.372C18.3436 11.724 18.8166 11.9 19.4619 11.9C20.0779 11.9 20.5399 11.724 20.8479 11.372C21.1633 11.02 21.3209 10.4993 21.3209 9.81V5.245H22.7179V9.821C22.7179 10.9063 22.4429 11.7277 21.8929 12.285C21.3503 12.835 20.5399 13.11 19.4619 13.11ZM28.1765 13.11C27.5532 13.11 26.9775 13.033 26.4495 12.879C25.9288 12.7177 25.4815 12.4977 25.1075 12.219L25.5475 11.108C25.7968 11.284 26.0572 11.4343 26.3285 11.559C26.5998 11.6763 26.8895 11.768 27.1975 11.834C27.5055 11.8927 27.8318 11.922 28.1765 11.922C28.7558 11.922 29.1738 11.8267 29.4305 11.636C29.6872 11.4453 29.8155 11.196 29.8155 10.888C29.8155 10.6167 29.7275 10.4113 29.5515 10.272C29.3755 10.1253 29.0602 10.0043 28.6055 9.909L27.3625 9.656C26.6512 9.50933 26.1195 9.26367 25.7675 8.919C25.4155 8.57433 25.2395 8.11233 25.2395 7.533C25.2395 7.049 25.3678 6.62733 25.6245 6.268C25.8812 5.90867 26.2405 5.63 26.7025 5.432C27.1645 5.234 27.7035 5.135 28.3195 5.135C28.8695 5.135 29.3792 5.21567 29.8485 5.377C30.3178 5.531 30.7102 5.75467 31.0255 6.048L30.5855 7.104C30.2702 6.84 29.9255 6.64567 29.5515 6.521C29.1775 6.389 28.7595 6.323 28.2975 6.323C27.7768 6.323 27.3698 6.42567 27.0765 6.631C26.7905 6.829 26.6475 7.104 26.6475 7.456C26.6475 7.72733 26.7355 7.94367 26.9115 8.105C27.0948 8.26633 27.4028 8.391 27.8355 8.479L29.0675 8.721C29.8008 8.86767 30.3435 9.10967 30.6955 9.447C31.0475 9.777 31.2235 10.2243 31.2235 10.789C31.2235 11.251 31.0988 11.658 30.8495 12.01C30.6002 12.3547 30.2482 12.626 29.7935 12.824C29.3388 13.0147 28.7998 13.11 28.1765 13.11ZM37.7789 13V5.245H40.5949C41.4822 5.245 42.2302 5.399 42.8389 5.707C43.4549 6.00767 43.9206 6.44767 44.2359 7.027C44.5512 7.599 44.7089 8.29567 44.7089 9.117C44.7089 9.931 44.5512 10.6277 44.2359 11.207C43.9206 11.7863 43.4549 12.23 42.8389 12.538C42.2302 12.846 41.4822 13 40.5949 13H37.7789ZM39.1979 11.823H40.5069C41.4456 11.823 42.1422 11.5993 42.5969 11.152C43.0516 10.7047 43.2789 10.0263 43.2789 9.117C43.2789 8.20033 43.0516 7.522 42.5969 7.082C42.1422 6.63467 41.4456 6.411 40.5069 6.411H39.1979V11.823ZM47.6221 8.226L47.0611 7.786C47.2958 7.544 47.4571 7.32033 47.5451 7.115C47.6404 6.90233 47.6881 6.68233 47.6881 6.455L48.0291 6.763H46.9511V5.245H48.4911V6.246C48.4911 6.62 48.4251 6.96467 48.2931 7.28C48.1684 7.588 47.9448 7.90333 47.6221 8.226ZM51.0326 13V5.245H52.4516V13H51.0326ZM55.2586 13V5.245H56.3256L60.8246 11.064H60.5386V5.245H61.8586V13H60.7916L56.3036 7.181H56.5786V13H55.2586ZM64.6623 13V5.245H69.7773V6.356H66.0813V8.556H69.5243V9.667H66.0813V13H64.6623ZM71.6646 9.117C71.6646 8.303 71.8112 7.599 72.1046 7.005C72.4052 6.411 72.8342 5.95267 73.3916 5.63C73.9489 5.3 74.6126 5.135 75.3826 5.135C76.1452 5.135 76.8052 5.3 77.3626 5.63C77.9199 5.95267 78.3489 6.411 78.6496 7.005C78.9576 7.599 79.1116 8.29933 79.1116 9.106C79.1116 9.92 78.9576 10.6277 78.6496 11.229C78.3489 11.823 77.9199 12.285 77.3626 12.615C76.8052 12.945 76.1452 13.11 75.3826 13.11C74.6126 13.11 73.9489 12.945 73.3916 12.615C72.8416 12.285 72.4162 11.823 72.1156 11.229C71.8149 10.6277 71.6646 9.92367 71.6646 9.117ZM73.1496 9.117C73.1496 9.98967 73.3366 10.6717 73.7106 11.163C74.0846 11.6543 74.6419 11.9 75.3826 11.9C76.1012 11.9 76.6549 11.6543 77.0436 11.163C77.4322 10.6717 77.6266 9.98967 77.6266 9.117C77.6266 8.237 77.4322 7.555 77.0436 7.071C76.6622 6.587 76.1086 6.345 75.3826 6.345C74.6419 6.345 74.0846 6.587 73.7106 7.071C73.3366 7.555 73.1496 8.237 73.1496 9.117Z" fill="#D7D6D5"/>
<line x1="4.28585e-08" y1="20.5" x2="79" y2="20.5" stroke="#D7D6D5"/>
</svg>
