<svg width="79" height="52" viewBox="0 0 79 52" fill="none" xmlns="http://www.w3.org/2000/svg">
<path d="M0.858 13V5.245H4.246C5.09667 5.245 5.753 5.44667 6.215 5.85C6.68433 6.25333 6.919 6.81433 6.919 7.533C6.919 8.00967 6.81267 8.41667 6.6 8.754C6.39467 9.09133 6.09767 9.35167 5.709 9.535C5.32033 9.711 4.862 9.799 4.334 9.799L4.488 9.59H4.862C5.17 9.59 5.445 9.67067 5.687 9.832C5.929 9.99333 6.127 10.239 6.281 10.569L7.414 13H5.852L4.708 10.481C4.60533 10.2243 4.44767 10.0557 4.235 9.975C4.02967 9.89433 3.78033 9.854 3.487 9.854H2.277V13H0.858ZM2.277 8.809H4.015C4.51367 8.809 4.89133 8.70633 5.148 8.501C5.412 8.28833 5.544 7.98033 5.544 7.577C5.544 7.17367 5.412 6.86933 5.148 6.664C4.89133 6.45867 4.51367 6.356 4.015 6.356H2.277V8.809ZM9.68163 13V5.245H14.9066V6.356H11.0456V8.501H14.6536V9.623H11.0456V11.878H14.9066V13H9.68163ZM16.326 13L19.835 5.245H21.023L24.576 13H23.135L22.189 10.822L22.761 11.207H18.108L18.702 10.822L17.756 13H16.326ZM20.418 6.763L18.867 10.437L18.581 10.096H22.277L22.046 10.437L20.462 6.763H20.418ZM26.534 13V5.245H29.35C30.2373 5.245 30.9853 5.399 31.594 5.707C32.21 6.00767 32.6756 6.44767 32.991 7.027C33.3063 7.599 33.464 8.29567 33.464 9.117C33.464 9.931 33.3063 10.6277 32.991 11.207C32.6756 11.7863 32.21 12.23 31.594 12.538C30.9853 12.846 30.2373 13 29.35 13H26.534ZM27.953 11.823H29.262C30.2006 11.823 30.8973 11.5993 31.352 11.152C31.8066 10.7047 32.034 10.0263 32.034 9.117C32.034 8.20033 31.8066 7.522 31.352 7.082C30.8973 6.63467 30.2006 6.411 29.262 6.411H27.953V11.823ZM40.1424 13V5.245H41.3854L44.2344 11.658H43.8934L46.7424 5.245H47.9744V13H46.6874V7.247H47.0834L44.4764 13H43.6294L41.0224 7.247H41.4294V13H40.1424ZM50.5497 9.117C50.5497 8.303 50.6964 7.599 50.9897 7.005C51.2904 6.411 51.7194 5.95267 52.2767 5.63C52.8341 5.3 53.4977 5.135 54.2677 5.135C55.0304 5.135 55.6904 5.3 56.2477 5.63C56.8051 5.95267 57.2341 6.411 57.5347 7.005C57.8427 7.599 57.9967 8.29933 57.9967 9.106C57.9967 9.92 57.8427 10.6277 57.5347 11.229C57.2341 11.823 56.8051 12.285 56.2477 12.615C55.6904 12.945 55.0304 13.11 54.2677 13.11C53.4977 13.11 52.8341 12.945 52.2767 12.615C51.7267 12.285 51.3014 11.823 51.0007 11.229C50.7001 10.6277 50.5497 9.92367 50.5497 9.117ZM52.0347 9.117C52.0347 9.98967 52.2217 10.6717 52.5957 11.163C52.9697 11.6543 53.5271 11.9 54.2677 11.9C54.9864 11.9 55.5401 11.6543 55.9287 11.163C56.3174 10.6717 56.5117 9.98967 56.5117 9.117C56.5117 8.237 56.3174 7.555 55.9287 7.071C55.5474 6.587 54.9937 6.345 54.2677 6.345C53.5271 6.345 52.9697 6.587 52.5957 7.071C52.2217 7.555 52.0347 8.237 52.0347 9.117ZM60.5609 13V5.245H63.9489C64.7996 5.245 65.4559 5.44667 65.9179 5.85C66.3873 6.25333 66.6219 6.81433 66.6219 7.533C66.6219 8.00967 66.5156 8.41667 66.3029 8.754C66.0976 9.09133 65.8006 9.35167 65.4119 9.535C65.0233 9.711 64.5649 9.799 64.0369 9.799L64.1909 9.59H64.5649C64.8729 9.59 65.1479 9.67067 65.3899 9.832C65.6319 9.99333 65.8299 10.239 65.9839 10.569L67.1169 13H65.5549L64.4109 10.481C64.3083 10.2243 64.1506 10.0557 63.9379 9.975C63.7326 9.89433 63.4833 9.854 63.1899 9.854H61.9799V13H60.5609ZM61.9799 8.809H63.7179C64.2166 8.809 64.5943 8.70633 64.8509 8.501C65.1149 8.28833 65.2469 7.98033 65.2469 7.577C65.2469 7.17367 65.1149 6.86933 64.8509 6.664C64.5943 6.45867 64.2166 6.356 63.7179 6.356H61.9799V8.809ZM69.3846 13V5.245H74.6096V6.356H70.7486V8.501H74.3566V9.623H70.7486V11.878H74.6096V13H69.3846Z" fill="#FAFAFA"/>
<line x1="4.28585e-08" y1="20.5" x2="79" y2="20.5" stroke="#FAFAFA"/>
</svg>
