<svg width="48" height="48" viewBox="0 0 48 48" fill="none" xmlns="http://www.w3.org/2000/svg">
<g clip-path="url(#clip0_5760_1310)">
<path d="M48 37.9091C48 38.5227 47.8864 39.3239 47.6591 40.3125C47.4318 41.3011 47.1932 42.0795 46.9432 42.6477C46.4659 43.7841 45.0795 44.9886 42.7841 46.2614C40.6477 47.4205 38.5341 48 36.4432 48C35.8295 48 35.2273 47.9602 34.6364 47.8807C34.0455 47.8011 33.392 47.6591 32.6761 47.4545C31.9602 47.25 31.4261 47.0852 31.0739 46.9602C30.7216 46.8352 30.0909 46.6023 29.1818 46.2614C28.2727 45.9205 27.7159 45.7159 27.5114 45.6477C25.2841 44.8523 23.2955 43.9091 21.5455 42.8182C18.6591 41.0227 15.6591 38.5682 12.5455 35.4545C9.43182 32.3409 6.97727 29.3409 5.18182 26.4545C4.09091 24.7045 3.14773 22.7159 2.35227 20.4886C2.28409 20.2841 2.07955 19.7273 1.73864 18.8182C1.39773 17.9091 1.16477 17.2784 1.03977 16.9261C0.914773 16.5739 0.75 16.0398 0.545455 15.3239C0.340909 14.608 0.198864 13.9545 0.119318 13.3636C0.0397727 12.7727 0 12.1705 0 11.5568C0 9.46591 0.579545 7.35227 1.73864 5.21591C3.01136 2.92045 4.21591 1.53409 5.35227 1.05682C5.92045 0.806818 6.69886 0.568182 7.6875 0.340909C8.67614 0.113636 9.47727 0 10.0909 0C10.4091 0 10.6477 0.0340909 10.8068 0.102273C11.2159 0.238636 11.8182 1.10227 12.6136 2.69318C12.8636 3.125 13.2045 3.73864 13.6364 4.53409C14.0682 5.32955 14.4659 6.05114 14.8295 6.69886C15.1932 7.34659 15.5455 7.95455 15.8864 8.52273C15.9545 8.61364 16.1534 8.89773 16.483 9.375C16.8125 9.85227 17.0568 10.2557 17.2159 10.5852C17.375 10.9148 17.4545 11.2386 17.4545 11.5568C17.4545 12.0114 17.1307 12.5795 16.483 13.2614C15.8352 13.9432 15.1307 14.5682 14.3693 15.1364C13.608 15.7045 12.9034 16.3068 12.2557 16.9432C11.608 17.5795 11.2841 18.1023 11.2841 18.5114C11.2841 18.7159 11.3409 18.9716 11.4545 19.2784C11.5682 19.5852 11.6648 19.8182 11.7443 19.9773C11.8239 20.1364 11.983 20.4091 12.2216 20.7955C12.4602 21.1818 12.5909 21.3977 12.6136 21.4432C14.3409 24.5568 16.3182 27.2273 18.5455 29.4545C20.7727 31.6818 23.4432 33.6591 26.5568 35.3864C26.6023 35.4091 26.8182 35.5398 27.2045 35.7784C27.5909 36.017 27.8636 36.1761 28.0227 36.2557C28.1818 36.3352 28.4148 36.4318 28.7216 36.5455C29.0284 36.6591 29.2841 36.7159 29.4886 36.7159C29.8977 36.7159 30.4205 36.392 31.0568 35.7443C31.6932 35.0966 32.2955 34.392 32.8636 33.6307C33.4318 32.8693 34.0568 32.1648 34.7386 31.517C35.4205 30.8693 35.9886 30.5455 36.4432 30.5455C36.7614 30.5455 37.0852 30.625 37.4148 30.7841C37.7443 30.9432 38.1477 31.1875 38.625 31.517C39.1023 31.8466 39.3864 32.0455 39.4773 32.1136C40.0455 32.4545 40.6534 32.8068 41.3011 33.1705C41.9489 33.5341 42.6705 33.9318 43.4659 34.3636C44.2614 34.7955 44.875 35.1364 45.3068 35.3864C46.8977 36.1818 47.7614 36.7841 47.8977 37.1932C47.9659 37.3523 48 37.5909 48 37.9091Z" fill="black"/>
</g>
<defs>
<clipPath id="clip0_5760_1310">
<rect width="48" height="48" fill="white"/>
</clipPath>
</defs>
</svg>
