<svg width="25" height="25" viewBox="0 0 25 25" fill="none" xmlns="http://www.w3.org/2000/svg">
<path d="M20.4242 8.19749C20.4369 8.3913 20.4369 8.58515 20.4369 8.77895C20.4369 14.6903 16.3125 21.5016 8.77442 21.5016C6.45207 21.5016 4.29471 20.7679 2.47998 19.4943C2.80994 19.5358 3.12717 19.5496 3.46983 19.5496C5.38605 19.5496 7.15004 18.8436 8.55868 17.6392C6.75664 17.5976 5.24648 16.3101 4.72616 14.5381C4.97999 14.5796 5.23378 14.6073 5.5003 14.6073C5.86831 14.6073 6.23636 14.5519 6.57898 14.455C4.70081 14.0397 3.29213 12.24 3.29213 10.0664V10.0111C3.8378 10.3433 4.47237 10.551 5.14491 10.5787C4.04085 9.77569 3.31752 8.40515 3.31752 6.8546C3.31752 6.02397 3.52053 5.26255 3.87588 4.59803C5.89367 7.31146 8.92669 9.08347 12.3277 9.27732C12.2642 8.94506 12.2262 8.599 12.2262 8.25289C12.2262 5.78862 14.0536 3.78125 16.3252 3.78125C17.5054 3.78125 18.5713 4.32117 19.3201 5.19334C20.2465 4.99954 21.1348 4.62573 21.9216 4.11351C21.617 5.15184 20.9698 6.02401 20.1196 6.57774C20.9445 6.48088 21.744 6.23163 22.48 5.88556C21.9217 6.77155 21.2237 7.56063 20.4242 8.19749Z" fill="#062047"/>
</svg>
