<svg width="25" height="25" viewBox="0 0 25 25" fill="none" xmlns="http://www.w3.org/2000/svg">
<path d="M23.0203 7.28471C22.7673 6.29929 22.0218 5.52321 21.0752 5.25983C19.3596 4.78125 12.48 4.78125 12.48 4.78125C12.48 4.78125 5.60042 4.78125 3.88472 5.25983C2.93819 5.52325 2.19271 6.29929 1.93969 7.28471C1.47998 9.07083 1.47998 12.7974 1.47998 12.7974C1.47998 12.7974 1.47998 16.524 1.93969 18.3101C2.19271 19.2955 2.93819 20.0393 3.88472 20.3027C5.60042 20.7812 12.48 20.7812 12.48 20.7812C12.48 20.7812 19.3595 20.7812 21.0752 20.3027C22.0218 20.0393 22.7673 19.2955 23.0203 18.3101C23.48 16.524 23.48 12.7974 23.48 12.7974C23.48 12.7974 23.48 9.07083 23.0203 7.28471ZM10.23 16.1809V9.41396L15.9799 12.7975L10.23 16.1809Z" fill="#062047"/>
</svg>
